<svg xmlns="http://www.w3.org/2000/svg" width="256" height="256" viewBox="0 0 256 256" fill="none">
  <rect width="256" height="256" rx="35.6" fill="white"/>
  <path d="M198.345 81.1618C189.495 80.7207 181.101 83.7513 174.684 89.7128C170.97 93.1702 168.182 97.4385 166.531 102.105C164.753 107.099 168.495 112.349 173.802 112.349H173.816C177.159 112.349 180.019 110.144 181.143 107C181.997 104.624 183.42 102.475 185.34 100.682C188.641 97.6235 192.967 96.0584 197.548 96.2861C206.327 96.7271 213.184 104.026 213.113 112.876C213.085 116.191 210.268 118.837 206.881 118.837H126.721C122.453 118.837 118.981 122.224 118.981 126.407C118.981 130.59 122.453 133.976 126.721 133.976H206.853C218.748 133.976 228.508 124.642 228.608 113.004C228.75 96.03 215.404 82.0155 198.345 81.1618Z" fill="#54C9EF"/>
  <path d="M198.345 148.559C198.302 148.517 198.245 148.46 198.203 148.417C194.077 144.391 188.499 142.128 182.666 142.128H123.976C119.764 142.128 115.738 140.435 112.849 137.447L112.508 137.092C106.774 131.159 106.916 121.953 112.849 116.191C115.809 113.317 119.906 111.851 124.089 111.851H139.356C152.744 111.851 163.6 101.237 163.6 88.1334C163.6 83.3386 160.783 78.999 156.401 77.0641C153.427 75.7551 150.354 74.6026 147.822 73.5924C139.854 70.4054 131.175 68.7407 122.183 68.7407C121.301 68.7407 120.433 68.7692 119.608 68.7976H119.494C103.445 69.4094 88.3062 75.4705 76.8812 85.8854C69.6819 92.4444 61.2305 98.2636 51.7689 103.172L38.0959 110.272C31.551 113.672 27.4961 120.146 27.4961 127.175C27.4961 134.218 31.551 140.691 38.0817 144.078L48.155 149.313C58.4418 154.663 67.6615 161.222 75.5438 168.834C87.8224 180.686 104.384 187.217 122.183 187.217C122.411 187.217 122.624 187.217 122.852 187.202H123.108C134.191 187.06 146.982 184.115 156.102 177.869C161.978 173.842 159.204 164.665 152.076 164.665C150.553 164.665 149.074 165.149 147.836 166.045C139.925 171.737 136.766 172.092 122.852 172.405H122.197C108.467 172.405 95.2067 167.226 85.859 158.177C76.9523 149.569 66.5659 142.171 55.0129 136.167L44.9395 130.931C43.2891 130.077 42.3358 128.711 42.3358 127.175C42.3358 125.652 43.2891 124.287 44.9395 123.419L58.6125 116.319C69.2123 110.813 78.7166 104.254 86.8692 96.8409C95.7047 88.8021 107.471 84.1069 120.006 83.6089H120.134C120.817 83.5804 121.514 83.5662 122.197 83.5662C128.813 83.5662 135.216 84.7187 141.12 86.9098C146.271 88.8163 144.976 96.6274 139.498 96.7128C139.456 96.7128 139.413 96.7128 139.37 96.7128H124.26C116.449 96.7128 108.78 99.345 102.989 104.481C96.2454 110.457 92.603 118.837 92.8591 127.715C93.0725 135.299 96.3877 142.484 101.723 147.99C107.471 153.923 115.453 157.295 123.819 157.295H182.267C184.245 157.295 186.152 158.064 187.56 159.444L187.603 159.486C188.727 160.582 189.58 161.976 189.837 163.513C190.306 166.202 189.31 168.777 187.204 170.47C185.81 171.594 184.003 172.121 182.196 172.121H180.816C176.633 172.121 173.247 175.507 173.247 179.69C173.247 183.873 176.633 187.259 180.816 187.259H181.926C187.887 187.259 193.735 185.225 198.103 181.255C203.239 176.574 205.871 170.029 205.359 163.086C204.947 157.566 202.314 152.458 198.345 148.559Z" fill="#54C9EF"/>
</svg>